G04 (created by PCBNEW (2013-07-07 BZR 4022)-stable) date 12/31/2013 10:19:37 PM*
%MOIN*%
G04 Gerber Fmt 3.4, Leading zero omitted, Abs format*
%FSLAX34Y34*%
G01*
G70*
G90*
G04 APERTURE LIST*
%ADD10C,0.00590551*%
%ADD11R,0.0236X0.0551*%
%ADD12R,0.1575X0.1102*%
%ADD13R,0.0236X0.0315*%
%ADD14R,0.0433X0.0276*%
%ADD15R,0.019685X0.0629921*%
%ADD16R,0.0629921X0.019685*%
%ADD17C,0.16*%
%ADD18R,0.06X0.0866*%
%ADD19O,0.06X0.0866*%
%ADD20C,0.0591*%
%ADD21O,0.0787X0.0787*%
%ADD22R,0.0787X0.0787*%
%ADD23R,0.0866X0.063*%
%ADD24R,0.0354X0.0394*%
%ADD25C,0.035*%
%ADD26C,0.01*%
G04 APERTURE END LIST*
G54D10*
G54D11*
X48450Y-35150D03*
X48450Y-37250D03*
X48950Y-35150D03*
X49450Y-35150D03*
X49950Y-35150D03*
X48950Y-37250D03*
X49450Y-37250D03*
X49950Y-37250D03*
G54D12*
X49200Y-36200D03*
G54D13*
X49056Y-39688D03*
G54D14*
X48800Y-40672D03*
G54D13*
X48544Y-39688D03*
G54D15*
X55770Y-39016D03*
X56085Y-39016D03*
X56400Y-39016D03*
X56715Y-39016D03*
X57030Y-39016D03*
X54825Y-39016D03*
X55140Y-39016D03*
X55455Y-39016D03*
G54D16*
X58616Y-38375D03*
X58616Y-38060D03*
X58616Y-37745D03*
X58616Y-37430D03*
X58616Y-37115D03*
X58616Y-36800D03*
X58616Y-36485D03*
X58616Y-36170D03*
G54D15*
X57975Y-34583D03*
X57660Y-34583D03*
X57345Y-34583D03*
X57030Y-34583D03*
X56715Y-34583D03*
X56400Y-34583D03*
X56085Y-34583D03*
X55770Y-34583D03*
G54D16*
X54183Y-35225D03*
X54183Y-35540D03*
X54183Y-35855D03*
X54183Y-36170D03*
X54183Y-36485D03*
X54183Y-36800D03*
X54183Y-37115D03*
X54183Y-37430D03*
G54D15*
X57345Y-39016D03*
X57660Y-39016D03*
X57975Y-39016D03*
G54D16*
X58616Y-35855D03*
X58616Y-35540D03*
X58616Y-35225D03*
G54D15*
X55455Y-34583D03*
X55140Y-34583D03*
X54825Y-34583D03*
G54D16*
X54183Y-37745D03*
X54183Y-38060D03*
X54183Y-38375D03*
G54D17*
X61250Y-36750D03*
X43500Y-36750D03*
G54D18*
X45200Y-41000D03*
G54D19*
X46200Y-41000D03*
X47200Y-41000D03*
G54D20*
X50400Y-39800D03*
X50400Y-40800D03*
X59200Y-40800D03*
X58200Y-40800D03*
X51400Y-40800D03*
G54D21*
X53000Y-32500D03*
G54D22*
X52000Y-32500D03*
G54D21*
X46500Y-32500D03*
G54D22*
X45500Y-32500D03*
G54D23*
X46991Y-36600D03*
X45809Y-36600D03*
X46991Y-38000D03*
X45809Y-38000D03*
G54D13*
X45465Y-35400D03*
X46135Y-35400D03*
X46665Y-35400D03*
X47335Y-35400D03*
G54D24*
X51904Y-38400D03*
X52496Y-38400D03*
X51904Y-37200D03*
X52496Y-37200D03*
X52496Y-36600D03*
X51904Y-36600D03*
X51904Y-37800D03*
X52496Y-37800D03*
X51904Y-34800D03*
X52496Y-34800D03*
X51904Y-36000D03*
X52496Y-36000D03*
X54704Y-40800D03*
X55296Y-40800D03*
X57096Y-40800D03*
X56504Y-40800D03*
X52496Y-35400D03*
X51904Y-35400D03*
X48896Y-38600D03*
X48304Y-38600D03*
X53496Y-40800D03*
X52904Y-40800D03*
G54D25*
X47848Y-38600D03*
X56217Y-38326D03*
X47785Y-35433D03*
X59208Y-36170D03*
X50351Y-34827D03*
X56573Y-36062D03*
X54850Y-38321D03*
X49610Y-38698D03*
X46204Y-34965D03*
X57432Y-37466D03*
X52956Y-37399D03*
X55332Y-35983D03*
X57930Y-36132D03*
X50956Y-34724D03*
X54920Y-35184D03*
X51449Y-34725D03*
X54278Y-32921D03*
X57073Y-35184D03*
X56275Y-37782D03*
X51293Y-37468D03*
X59218Y-37791D03*
X47835Y-34970D03*
X59184Y-38611D03*
X45878Y-35808D03*
X45136Y-34682D03*
X59634Y-38656D03*
X57788Y-38415D03*
X45909Y-38827D03*
X57015Y-38222D03*
X47026Y-38837D03*
X59220Y-37296D03*
X52400Y-40105D03*
X56990Y-32943D03*
X55759Y-35329D03*
X59875Y-40939D03*
X55313Y-38409D03*
X47380Y-37402D03*
X50345Y-37312D03*
X54834Y-32919D03*
X53036Y-34960D03*
X51975Y-40824D03*
X55553Y-32924D03*
X57713Y-35185D03*
X59198Y-32606D03*
X57072Y-35642D03*
G54D26*
X48304Y-38600D02*
X47848Y-38600D01*
X57030Y-39016D02*
X57030Y-38551D01*
X47636Y-35433D02*
X47603Y-35400D01*
X47785Y-35433D02*
X47636Y-35433D01*
X47335Y-35400D02*
X47603Y-35400D01*
X48166Y-35433D02*
X47785Y-35433D01*
X48450Y-35150D02*
X48166Y-35433D01*
X56442Y-38551D02*
X56217Y-38326D01*
X57030Y-38551D02*
X56442Y-38551D01*
X45200Y-37626D02*
X45200Y-40416D01*
X45761Y-37065D02*
X45200Y-37626D01*
X46990Y-37065D02*
X45761Y-37065D01*
X45200Y-41000D02*
X45200Y-40416D01*
X46990Y-36832D02*
X46990Y-37065D01*
X46990Y-36832D02*
X46990Y-36600D01*
X49950Y-35150D02*
X49950Y-34724D01*
X49866Y-34640D02*
X49950Y-34724D01*
X47576Y-34640D02*
X49866Y-34640D01*
X46990Y-35225D02*
X47576Y-34640D01*
X46990Y-36600D02*
X46990Y-35225D01*
X54183Y-35225D02*
X53718Y-35225D01*
X50282Y-34391D02*
X49950Y-34724D01*
X52957Y-34391D02*
X50282Y-34391D01*
X53718Y-35152D02*
X52957Y-34391D01*
X53718Y-35225D02*
X53718Y-35152D01*
X58616Y-36170D02*
X59081Y-36170D01*
X59081Y-36170D02*
X59208Y-36170D01*
X56995Y-36485D02*
X56573Y-36062D01*
X58616Y-36485D02*
X56995Y-36485D01*
X56371Y-36800D02*
X54850Y-38321D01*
X58616Y-36800D02*
X56371Y-36800D01*
X46067Y-34965D02*
X46204Y-34965D01*
X45733Y-35299D02*
X46067Y-34965D01*
X45733Y-35400D02*
X45733Y-35299D01*
X45465Y-35400D02*
X45733Y-35400D01*
X57783Y-37115D02*
X57432Y-37466D01*
X58616Y-37115D02*
X57783Y-37115D01*
X58616Y-35540D02*
X58151Y-35540D01*
X56192Y-35983D02*
X55332Y-35983D01*
X56438Y-35737D02*
X56192Y-35983D01*
X56708Y-35737D02*
X56438Y-35737D01*
X56943Y-35973D02*
X56708Y-35737D01*
X57628Y-35973D02*
X56943Y-35973D01*
X57795Y-35807D02*
X57628Y-35973D01*
X57884Y-35807D02*
X57795Y-35807D01*
X58151Y-35540D02*
X57884Y-35807D01*
X58151Y-35910D02*
X57930Y-36132D01*
X58151Y-35855D02*
X58151Y-35910D01*
X58616Y-35855D02*
X58151Y-35855D01*
X55056Y-35048D02*
X54920Y-35184D01*
X55140Y-35048D02*
X55056Y-35048D01*
X55140Y-34583D02*
X55140Y-35048D01*
X51576Y-34853D02*
X51449Y-34725D01*
X51576Y-36600D02*
X51576Y-34853D01*
X51904Y-36600D02*
X51576Y-36600D01*
X45692Y-36134D02*
X45809Y-36134D01*
X44802Y-35245D02*
X45692Y-36134D01*
X44802Y-33740D02*
X44802Y-35245D01*
X45500Y-33043D02*
X44802Y-33740D01*
X45500Y-32500D02*
X45500Y-33043D01*
X45809Y-36600D02*
X45809Y-36134D01*
X49450Y-37250D02*
X49450Y-37675D01*
X46200Y-41000D02*
X46650Y-41000D01*
X48362Y-41259D02*
X47514Y-40411D01*
X53036Y-41259D02*
X48362Y-41259D01*
X53495Y-40800D02*
X53036Y-41259D01*
X46650Y-40760D02*
X46650Y-41000D01*
X46999Y-40411D02*
X46650Y-40760D01*
X47514Y-40411D02*
X46999Y-40411D01*
X56400Y-34583D02*
X56400Y-35048D01*
X54183Y-36485D02*
X54648Y-36485D01*
X56400Y-35148D02*
X56400Y-35048D01*
X55893Y-35654D02*
X56400Y-35148D01*
X55198Y-35654D02*
X55893Y-35654D01*
X54648Y-36204D02*
X55198Y-35654D01*
X54648Y-36485D02*
X54648Y-36204D01*
X49450Y-37800D02*
X51576Y-37800D01*
X49450Y-37675D02*
X49450Y-37800D01*
X47514Y-38473D02*
X47514Y-40411D01*
X47787Y-38200D02*
X47514Y-38473D01*
X49049Y-38200D02*
X47787Y-38200D01*
X49450Y-37800D02*
X49049Y-38200D01*
X51904Y-37800D02*
X51740Y-37800D01*
X51740Y-37800D02*
X51576Y-37800D01*
X51904Y-37636D02*
X51904Y-37200D01*
X51740Y-37800D02*
X51904Y-37636D01*
X53000Y-32500D02*
X53543Y-32500D01*
X56400Y-34583D02*
X56400Y-34118D01*
X54880Y-32500D02*
X53543Y-32500D01*
X55171Y-32791D02*
X54880Y-32500D01*
X55171Y-33006D02*
X55171Y-32791D01*
X55414Y-33249D02*
X55171Y-33006D01*
X55530Y-33249D02*
X55414Y-33249D01*
X56400Y-34118D02*
X55530Y-33249D01*
X55770Y-34583D02*
X55770Y-34118D01*
X55475Y-34118D02*
X54278Y-32921D01*
X55770Y-34118D02*
X55475Y-34118D01*
X57345Y-34583D02*
X57345Y-35048D01*
X57209Y-35048D02*
X57073Y-35184D01*
X57345Y-35048D02*
X57209Y-35048D01*
X58616Y-37745D02*
X58151Y-37745D01*
X56301Y-37808D02*
X56275Y-37782D01*
X58087Y-37808D02*
X56301Y-37808D01*
X58151Y-37745D02*
X58087Y-37808D01*
X59081Y-37927D02*
X59218Y-37791D01*
X59081Y-38060D02*
X59081Y-37927D01*
X58616Y-38060D02*
X59081Y-38060D01*
X58616Y-38375D02*
X59081Y-38375D01*
X59081Y-38508D02*
X59184Y-38611D01*
X59081Y-38375D02*
X59081Y-38508D01*
X59274Y-39016D02*
X57975Y-39016D01*
X59634Y-38656D02*
X59274Y-39016D01*
X57660Y-38543D02*
X57788Y-38415D01*
X57660Y-39016D02*
X57660Y-38543D01*
X57345Y-39016D02*
X57345Y-38551D01*
X57345Y-38551D02*
X57015Y-38222D01*
X58616Y-37430D02*
X59081Y-37430D01*
X59087Y-37430D02*
X59220Y-37296D01*
X59081Y-37430D02*
X59087Y-37430D01*
X52904Y-40800D02*
X52576Y-40800D01*
X52576Y-40281D02*
X52400Y-40105D01*
X52576Y-40800D02*
X52576Y-40281D01*
X57030Y-34583D02*
X57030Y-34118D01*
X56990Y-34078D02*
X56990Y-32943D01*
X57030Y-34118D02*
X56990Y-34078D01*
X49055Y-39687D02*
X49324Y-39687D01*
X54648Y-38060D02*
X54648Y-37115D01*
X54183Y-38060D02*
X54648Y-38060D01*
X54183Y-37115D02*
X54648Y-37115D01*
X49436Y-39800D02*
X50400Y-39800D01*
X49324Y-39687D02*
X49436Y-39800D01*
X53718Y-38070D02*
X53718Y-38060D01*
X52584Y-39205D02*
X53718Y-38070D01*
X50995Y-39205D02*
X52584Y-39205D01*
X50400Y-39800D02*
X50995Y-39205D01*
X54183Y-38060D02*
X53718Y-38060D01*
X46665Y-35400D02*
X46135Y-35400D01*
X55478Y-35048D02*
X55759Y-35329D01*
X55455Y-35048D02*
X55478Y-35048D01*
X55455Y-34583D02*
X55455Y-35048D01*
X54183Y-36800D02*
X53718Y-36800D01*
X53718Y-36800D02*
X52495Y-36800D01*
X52495Y-36600D02*
X52495Y-36800D01*
X52495Y-36800D02*
X52495Y-37200D01*
X52495Y-37800D02*
X52495Y-37200D01*
X56715Y-39016D02*
X56715Y-39481D01*
X55295Y-40800D02*
X55623Y-40800D01*
X56504Y-40800D02*
X55623Y-40800D01*
X57338Y-41147D02*
X57859Y-40626D01*
X56851Y-41147D02*
X57338Y-41147D01*
X56504Y-40800D02*
X56851Y-41147D01*
X56715Y-39481D02*
X57859Y-40626D01*
X58033Y-40800D02*
X58200Y-40800D01*
X57859Y-40626D02*
X58033Y-40800D01*
X56400Y-40104D02*
X56400Y-39016D01*
X57095Y-40800D02*
X56400Y-40104D01*
X55770Y-39734D02*
X54704Y-40800D01*
X55770Y-39016D02*
X55770Y-39734D01*
X55455Y-39016D02*
X55455Y-38551D01*
X55313Y-38409D02*
X55455Y-38551D01*
X59736Y-40800D02*
X59875Y-40939D01*
X59200Y-40800D02*
X59736Y-40800D01*
X50012Y-37312D02*
X50345Y-37312D01*
X49950Y-37250D02*
X50012Y-37312D01*
X45809Y-38000D02*
X45809Y-37534D01*
X47248Y-37534D02*
X47380Y-37402D01*
X45809Y-37534D02*
X47248Y-37534D01*
X56085Y-34583D02*
X56085Y-34118D01*
X54834Y-32958D02*
X54834Y-32919D01*
X55325Y-33449D02*
X54834Y-32958D01*
X55415Y-33449D02*
X55325Y-33449D01*
X56085Y-34118D02*
X55415Y-33449D01*
X53263Y-35400D02*
X53718Y-35855D01*
X52823Y-35400D02*
X53263Y-35400D01*
X52495Y-35400D02*
X52823Y-35400D01*
X54183Y-35855D02*
X53718Y-35855D01*
X52495Y-34800D02*
X52823Y-34800D01*
X54183Y-35540D02*
X53718Y-35540D01*
X53139Y-34960D02*
X53036Y-34960D01*
X53718Y-35540D02*
X53139Y-34960D01*
X52983Y-34960D02*
X52823Y-34800D01*
X53036Y-34960D02*
X52983Y-34960D01*
X51424Y-40824D02*
X51400Y-40800D01*
X51975Y-40824D02*
X51424Y-40824D01*
X48800Y-40672D02*
X49166Y-40672D01*
X49294Y-40800D02*
X50400Y-40800D01*
X49166Y-40672D02*
X49294Y-40800D01*
X52434Y-39658D02*
X53718Y-38375D01*
X51541Y-39658D02*
X52434Y-39658D01*
X50400Y-40800D02*
X51541Y-39658D01*
X54183Y-38375D02*
X53718Y-38375D01*
X48895Y-39336D02*
X48544Y-39687D01*
X48895Y-38600D02*
X48895Y-39336D01*
X47898Y-37675D02*
X47574Y-38000D01*
X48950Y-37675D02*
X47898Y-37675D01*
X48950Y-37250D02*
X48950Y-37675D01*
X46990Y-38000D02*
X47574Y-38000D01*
X52251Y-38747D02*
X51904Y-38400D01*
X52759Y-38747D02*
X52251Y-38747D01*
X53493Y-38012D02*
X52759Y-38747D01*
X53493Y-37969D02*
X53493Y-38012D01*
X53718Y-37745D02*
X53493Y-37969D01*
X54183Y-37745D02*
X53718Y-37745D01*
X52495Y-36000D02*
X52823Y-36000D01*
X53548Y-36000D02*
X52823Y-36000D01*
X53718Y-36170D02*
X53548Y-36000D01*
X54183Y-36170D02*
X53718Y-36170D01*
X51904Y-36000D02*
X51904Y-35400D01*
X51904Y-35400D02*
X51904Y-34800D01*
X52823Y-38325D02*
X53718Y-37430D01*
X52823Y-38400D02*
X52823Y-38325D01*
X52495Y-38400D02*
X52823Y-38400D01*
X54183Y-37430D02*
X53718Y-37430D01*
X56209Y-32268D02*
X55553Y-32924D01*
X59351Y-32268D02*
X56209Y-32268D01*
X59528Y-32445D02*
X59351Y-32268D01*
X59528Y-32736D02*
X59528Y-32445D01*
X58146Y-34118D02*
X59528Y-32736D01*
X57660Y-34118D02*
X58146Y-34118D01*
X57660Y-34583D02*
X57660Y-34118D01*
X57975Y-34583D02*
X57975Y-35048D01*
X57850Y-35048D02*
X57713Y-35185D01*
X57975Y-35048D02*
X57850Y-35048D01*
X56861Y-32606D02*
X59198Y-32606D01*
X56652Y-32815D02*
X56861Y-32606D01*
X56652Y-34056D02*
X56652Y-32815D01*
X56715Y-34118D02*
X56652Y-34056D01*
X56715Y-34583D02*
X56715Y-34118D01*
X58616Y-35225D02*
X58151Y-35225D01*
X57115Y-35598D02*
X57072Y-35642D01*
X57777Y-35598D02*
X57115Y-35598D01*
X58151Y-35225D02*
X57777Y-35598D01*
M02*
