G04 (created by PCBNEW (2013-07-07 BZR 4022)-stable) date 12/31/2013 10:19:37 PM*
%MOIN*%
G04 Gerber Fmt 3.4, Leading zero omitted, Abs format*
%FSLAX34Y34*%
G01*
G70*
G90*
G04 APERTURE LIST*
%ADD10C,0.00590551*%
%ADD11C,0.011811*%
%ADD12C,0.0117992*%
%ADD13C,0.00779921*%
%ADD14C,0.00770079*%
G04 APERTURE END LIST*
G54D10*
G54D11*
X56171Y-39309D02*
X52509Y-39309D01*
X59990Y-39309D02*
X56328Y-39309D01*
X56328Y-34190D02*
X59990Y-34190D01*
X56171Y-34190D02*
X52509Y-34190D01*
G54D12*
X53100Y-38699D02*
G75*
G03X53100Y-38699I-78J0D01*
G74*
G01*
G54D11*
X53572Y-38718D02*
X53710Y-38442D01*
X53297Y-36927D02*
X53179Y-37104D01*
X53179Y-37104D02*
X53395Y-38541D01*
X53395Y-38541D02*
X53572Y-38718D01*
X53533Y-37163D02*
X53297Y-36927D01*
X53710Y-38462D02*
X53533Y-37163D01*
X53395Y-36336D02*
X53218Y-35037D01*
X53218Y-35037D02*
X52982Y-34801D01*
X53080Y-36415D02*
X53257Y-36592D01*
X52864Y-34978D02*
X53080Y-36415D01*
X52982Y-34801D02*
X52864Y-34978D01*
X53257Y-36592D02*
X53395Y-36316D01*
X55954Y-38423D02*
X55777Y-37124D01*
X55777Y-37124D02*
X55541Y-36887D01*
X55639Y-38501D02*
X55816Y-38679D01*
X55423Y-37064D02*
X55639Y-38501D01*
X55541Y-36887D02*
X55423Y-37064D01*
X55816Y-38679D02*
X55954Y-38403D01*
X55501Y-36553D02*
X55639Y-36277D01*
X55226Y-34761D02*
X55108Y-34938D01*
X55108Y-34938D02*
X55324Y-36375D01*
X55324Y-36375D02*
X55501Y-36553D01*
X55462Y-34998D02*
X55226Y-34761D01*
X55639Y-36297D02*
X55462Y-34998D01*
X53553Y-36572D02*
X53435Y-36750D01*
X55226Y-36572D02*
X53553Y-36572D01*
X55403Y-36750D02*
X55226Y-36572D01*
X55285Y-36927D02*
X53592Y-36927D01*
X55403Y-36750D02*
X55285Y-36927D01*
X53435Y-36750D02*
X53592Y-36927D01*
X53100Y-34604D02*
X53257Y-34781D01*
X55068Y-34604D02*
X54950Y-34781D01*
X54950Y-34781D02*
X53257Y-34781D01*
X55068Y-34604D02*
X54891Y-34427D01*
X54891Y-34427D02*
X53218Y-34427D01*
X53218Y-34427D02*
X53100Y-34604D01*
X53848Y-38718D02*
X53730Y-38895D01*
X55521Y-38718D02*
X53848Y-38718D01*
X55698Y-38895D02*
X55521Y-38718D01*
X55580Y-39072D02*
X53887Y-39072D01*
X55698Y-38895D02*
X55580Y-39072D01*
X53730Y-38895D02*
X53887Y-39072D01*
X57411Y-38895D02*
X57568Y-39072D01*
X59379Y-38895D02*
X59261Y-39072D01*
X59261Y-39072D02*
X57568Y-39072D01*
X59379Y-38895D02*
X59202Y-38718D01*
X59202Y-38718D02*
X57529Y-38718D01*
X57529Y-38718D02*
X57411Y-38895D01*
X56899Y-34427D02*
X56781Y-34604D01*
X58572Y-34427D02*
X56899Y-34427D01*
X58750Y-34604D02*
X58572Y-34427D01*
X58631Y-34781D02*
X56938Y-34781D01*
X58750Y-34604D02*
X58631Y-34781D01*
X56781Y-34604D02*
X56938Y-34781D01*
X57116Y-36750D02*
X57273Y-36927D01*
X59084Y-36750D02*
X58966Y-36927D01*
X58966Y-36927D02*
X57273Y-36927D01*
X59084Y-36750D02*
X58907Y-36572D01*
X58907Y-36572D02*
X57234Y-36572D01*
X57234Y-36572D02*
X57116Y-36750D01*
X59320Y-36297D02*
X59143Y-34998D01*
X59143Y-34998D02*
X58907Y-34761D01*
X59005Y-36375D02*
X59183Y-36553D01*
X58789Y-34938D02*
X59005Y-36375D01*
X58907Y-34761D02*
X58789Y-34938D01*
X59183Y-36553D02*
X59320Y-36277D01*
X59498Y-38679D02*
X59635Y-38403D01*
X59222Y-36887D02*
X59104Y-37064D01*
X59104Y-37064D02*
X59320Y-38501D01*
X59320Y-38501D02*
X59498Y-38679D01*
X59458Y-37124D02*
X59222Y-36887D01*
X59635Y-38423D02*
X59458Y-37124D01*
X56938Y-36592D02*
X57076Y-36316D01*
X56663Y-34801D02*
X56545Y-34978D01*
X56545Y-34978D02*
X56761Y-36415D01*
X56761Y-36415D02*
X56938Y-36592D01*
X56899Y-35037D02*
X56663Y-34801D01*
X57076Y-36336D02*
X56899Y-35037D01*
X57391Y-38462D02*
X57214Y-37163D01*
X57214Y-37163D02*
X56978Y-36927D01*
X57076Y-38541D02*
X57253Y-38718D01*
X56860Y-37104D02*
X57076Y-38541D01*
X56978Y-36927D02*
X56860Y-37104D01*
X57253Y-38718D02*
X57391Y-38442D01*
X56171Y-39309D02*
X56171Y-34190D01*
X56328Y-34190D02*
X56328Y-39309D01*
X59990Y-34190D02*
X59990Y-39309D01*
X52509Y-39309D02*
X52509Y-34190D01*
G54D12*
X56781Y-38699D02*
G75*
G03X56781Y-38699I-78J0D01*
G74*
G01*
G54D11*
X48421Y-39309D02*
X44759Y-39309D01*
X52240Y-39309D02*
X48578Y-39309D01*
X48578Y-34190D02*
X52240Y-34190D01*
X48421Y-34190D02*
X44759Y-34190D01*
G54D12*
X45350Y-38699D02*
G75*
G03X45350Y-38699I-78J0D01*
G74*
G01*
G54D11*
X45822Y-38718D02*
X45960Y-38442D01*
X45547Y-36927D02*
X45429Y-37104D01*
X45429Y-37104D02*
X45645Y-38541D01*
X45645Y-38541D02*
X45822Y-38718D01*
X45783Y-37163D02*
X45547Y-36927D01*
X45960Y-38462D02*
X45783Y-37163D01*
X45645Y-36336D02*
X45468Y-35037D01*
X45468Y-35037D02*
X45232Y-34801D01*
X45330Y-36415D02*
X45507Y-36592D01*
X45114Y-34978D02*
X45330Y-36415D01*
X45232Y-34801D02*
X45114Y-34978D01*
X45507Y-36592D02*
X45645Y-36316D01*
X48204Y-38423D02*
X48027Y-37124D01*
X48027Y-37124D02*
X47791Y-36887D01*
X47889Y-38501D02*
X48066Y-38679D01*
X47673Y-37064D02*
X47889Y-38501D01*
X47791Y-36887D02*
X47673Y-37064D01*
X48066Y-38679D02*
X48204Y-38403D01*
X47751Y-36553D02*
X47889Y-36277D01*
X47476Y-34761D02*
X47358Y-34938D01*
X47358Y-34938D02*
X47574Y-36375D01*
X47574Y-36375D02*
X47751Y-36553D01*
X47712Y-34998D02*
X47476Y-34761D01*
X47889Y-36297D02*
X47712Y-34998D01*
X45803Y-36572D02*
X45685Y-36750D01*
X47476Y-36572D02*
X45803Y-36572D01*
X47653Y-36750D02*
X47476Y-36572D01*
X47535Y-36927D02*
X45842Y-36927D01*
X47653Y-36750D02*
X47535Y-36927D01*
X45685Y-36750D02*
X45842Y-36927D01*
X45350Y-34604D02*
X45507Y-34781D01*
X47318Y-34604D02*
X47200Y-34781D01*
X47200Y-34781D02*
X45507Y-34781D01*
X47318Y-34604D02*
X47141Y-34427D01*
X47141Y-34427D02*
X45468Y-34427D01*
X45468Y-34427D02*
X45350Y-34604D01*
X46098Y-38718D02*
X45980Y-38895D01*
X47771Y-38718D02*
X46098Y-38718D01*
X47948Y-38895D02*
X47771Y-38718D01*
X47830Y-39072D02*
X46137Y-39072D01*
X47948Y-38895D02*
X47830Y-39072D01*
X45980Y-38895D02*
X46137Y-39072D01*
X49661Y-38895D02*
X49818Y-39072D01*
X51629Y-38895D02*
X51511Y-39072D01*
X51511Y-39072D02*
X49818Y-39072D01*
X51629Y-38895D02*
X51452Y-38718D01*
X51452Y-38718D02*
X49779Y-38718D01*
X49779Y-38718D02*
X49661Y-38895D01*
X49149Y-34427D02*
X49031Y-34604D01*
X50822Y-34427D02*
X49149Y-34427D01*
X51000Y-34604D02*
X50822Y-34427D01*
X50881Y-34781D02*
X49188Y-34781D01*
X51000Y-34604D02*
X50881Y-34781D01*
X49031Y-34604D02*
X49188Y-34781D01*
X49366Y-36750D02*
X49523Y-36927D01*
X51334Y-36750D02*
X51216Y-36927D01*
X51216Y-36927D02*
X49523Y-36927D01*
X51334Y-36750D02*
X51157Y-36572D01*
X51157Y-36572D02*
X49484Y-36572D01*
X49484Y-36572D02*
X49366Y-36750D01*
X51570Y-36297D02*
X51393Y-34998D01*
X51393Y-34998D02*
X51157Y-34761D01*
X51255Y-36375D02*
X51433Y-36553D01*
X51039Y-34938D02*
X51255Y-36375D01*
X51157Y-34761D02*
X51039Y-34938D01*
X51433Y-36553D02*
X51570Y-36277D01*
X51748Y-38679D02*
X51885Y-38403D01*
X51472Y-36887D02*
X51354Y-37064D01*
X51354Y-37064D02*
X51570Y-38501D01*
X51570Y-38501D02*
X51748Y-38679D01*
X51708Y-37124D02*
X51472Y-36887D01*
X51885Y-38423D02*
X51708Y-37124D01*
X49188Y-36592D02*
X49326Y-36316D01*
X48913Y-34801D02*
X48795Y-34978D01*
X48795Y-34978D02*
X49011Y-36415D01*
X49011Y-36415D02*
X49188Y-36592D01*
X49149Y-35037D02*
X48913Y-34801D01*
X49326Y-36336D02*
X49149Y-35037D01*
X49641Y-38462D02*
X49464Y-37163D01*
X49464Y-37163D02*
X49228Y-36927D01*
X49326Y-38541D02*
X49503Y-38718D01*
X49110Y-37104D02*
X49326Y-38541D01*
X49228Y-36927D02*
X49110Y-37104D01*
X49503Y-38718D02*
X49641Y-38442D01*
X48421Y-39309D02*
X48421Y-34190D01*
X48578Y-34190D02*
X48578Y-39309D01*
X52240Y-34190D02*
X52240Y-39309D01*
X44759Y-39309D02*
X44759Y-34190D01*
G54D12*
X49031Y-38699D02*
G75*
G03X49031Y-38699I-78J0D01*
G74*
G01*
G54D13*
X60346Y-36272D02*
X59953Y-36272D01*
X59953Y-36366D01*
X59971Y-36422D01*
X60009Y-36459D01*
X60046Y-36478D01*
X60121Y-36497D01*
X60177Y-36497D01*
X60252Y-36478D01*
X60289Y-36459D01*
X60327Y-36422D01*
X60346Y-36366D01*
X60346Y-36272D01*
X60327Y-36647D02*
X60346Y-36703D01*
X60346Y-36796D01*
X60327Y-36834D01*
X60308Y-36852D01*
X60271Y-36871D01*
X60233Y-36871D01*
X60196Y-36852D01*
X60177Y-36834D01*
X60158Y-36796D01*
X60140Y-36721D01*
X60121Y-36684D01*
X60102Y-36665D01*
X60065Y-36647D01*
X60027Y-36647D01*
X59990Y-36665D01*
X59971Y-36684D01*
X59953Y-36721D01*
X59953Y-36815D01*
X59971Y-36871D01*
X60346Y-37245D02*
X60346Y-37021D01*
X60346Y-37133D02*
X59953Y-37133D01*
X60009Y-37096D01*
X60046Y-37058D01*
X60065Y-37021D01*
G54D14*
X59755Y-34117D02*
X59363Y-34117D01*
X59363Y-34211D01*
X59381Y-34267D01*
X59419Y-34304D01*
X59456Y-34323D01*
X59531Y-34341D01*
X59587Y-34341D01*
X59661Y-34323D01*
X59699Y-34304D01*
X59736Y-34267D01*
X59755Y-34211D01*
X59755Y-34117D01*
X59363Y-34509D02*
X59680Y-34509D01*
X59717Y-34528D01*
X59736Y-34547D01*
X59755Y-34584D01*
X59755Y-34659D01*
X59736Y-34696D01*
X59717Y-34715D01*
X59680Y-34733D01*
X59363Y-34733D01*
X59643Y-34901D02*
X59643Y-35088D01*
X59755Y-34864D02*
X59363Y-34995D01*
X59755Y-35125D01*
X59755Y-35443D02*
X59755Y-35256D01*
X59363Y-35256D01*
X59363Y-35536D02*
X59363Y-35797D01*
X59755Y-35629D01*
X59736Y-35928D02*
X59755Y-35984D01*
X59755Y-36077D01*
X59736Y-36115D01*
X59717Y-36133D01*
X59680Y-36152D01*
X59643Y-36152D01*
X59605Y-36133D01*
X59587Y-36115D01*
X59568Y-36077D01*
X59549Y-36003D01*
X59531Y-35965D01*
X59512Y-35947D01*
X59475Y-35928D01*
X59437Y-35928D01*
X59400Y-35947D01*
X59381Y-35965D01*
X59363Y-36003D01*
X59363Y-36096D01*
X59381Y-36152D01*
X59549Y-36320D02*
X59549Y-36451D01*
X59755Y-36507D02*
X59755Y-36320D01*
X59363Y-36320D01*
X59363Y-36507D01*
X59381Y-36880D02*
X59363Y-36843D01*
X59363Y-36787D01*
X59381Y-36731D01*
X59419Y-36693D01*
X59456Y-36675D01*
X59531Y-36656D01*
X59587Y-36656D01*
X59661Y-36675D01*
X59699Y-36693D01*
X59736Y-36731D01*
X59755Y-36787D01*
X59755Y-36824D01*
X59736Y-36880D01*
X59717Y-36899D01*
X59587Y-36899D01*
X59587Y-36824D01*
X59792Y-36974D02*
X59792Y-37272D01*
X59643Y-37347D02*
X59643Y-37534D01*
X59755Y-37310D02*
X59363Y-37440D01*
X59755Y-37571D01*
X59717Y-37926D02*
X59736Y-37907D01*
X59755Y-37851D01*
X59755Y-37814D01*
X59736Y-37758D01*
X59699Y-37720D01*
X59661Y-37702D01*
X59587Y-37683D01*
X59531Y-37683D01*
X59456Y-37702D01*
X59419Y-37720D01*
X59381Y-37758D01*
X59363Y-37814D01*
X59363Y-37851D01*
X59381Y-37907D01*
X59400Y-37926D01*
X59755Y-38094D02*
X59363Y-38094D01*
X59363Y-38187D01*
X59381Y-38243D01*
X59419Y-38280D01*
X59456Y-38299D01*
X59531Y-38318D01*
X59587Y-38318D01*
X59661Y-38299D01*
X59699Y-38280D01*
X59736Y-38243D01*
X59755Y-38187D01*
X59755Y-38094D01*
X59643Y-38467D02*
X59643Y-38654D01*
X59755Y-38430D02*
X59363Y-38560D01*
X59755Y-38691D01*
X59363Y-38896D02*
X59363Y-38934D01*
X59381Y-38971D01*
X59400Y-38990D01*
X59437Y-39008D01*
X59512Y-39027D01*
X59605Y-39027D01*
X59680Y-39008D01*
X59717Y-38990D01*
X59736Y-38971D01*
X59755Y-38934D01*
X59755Y-38896D01*
X59736Y-38859D01*
X59717Y-38840D01*
X59680Y-38822D01*
X59605Y-38803D01*
X59512Y-38803D01*
X59437Y-38822D01*
X59400Y-38840D01*
X59381Y-38859D01*
X59363Y-38896D01*
X59493Y-39363D02*
X59755Y-39363D01*
X59344Y-39270D02*
X59624Y-39176D01*
X59624Y-39419D01*
G54D13*
X52596Y-36272D02*
X52203Y-36272D01*
X52203Y-36366D01*
X52221Y-36422D01*
X52259Y-36459D01*
X52296Y-36478D01*
X52371Y-36497D01*
X52427Y-36497D01*
X52502Y-36478D01*
X52539Y-36459D01*
X52577Y-36422D01*
X52596Y-36366D01*
X52596Y-36272D01*
X52577Y-36647D02*
X52596Y-36703D01*
X52596Y-36796D01*
X52577Y-36834D01*
X52558Y-36852D01*
X52521Y-36871D01*
X52483Y-36871D01*
X52446Y-36852D01*
X52427Y-36834D01*
X52408Y-36796D01*
X52390Y-36721D01*
X52371Y-36684D01*
X52352Y-36665D01*
X52315Y-36647D01*
X52277Y-36647D01*
X52240Y-36665D01*
X52221Y-36684D01*
X52203Y-36721D01*
X52203Y-36815D01*
X52221Y-36871D01*
X52240Y-37021D02*
X52221Y-37040D01*
X52203Y-37077D01*
X52203Y-37171D01*
X52221Y-37208D01*
X52240Y-37227D01*
X52277Y-37245D01*
X52315Y-37245D01*
X52371Y-37227D01*
X52596Y-37002D01*
X52596Y-37245D01*
G54D14*
X52005Y-34117D02*
X51613Y-34117D01*
X51613Y-34211D01*
X51631Y-34267D01*
X51669Y-34304D01*
X51706Y-34323D01*
X51781Y-34341D01*
X51837Y-34341D01*
X51911Y-34323D01*
X51949Y-34304D01*
X51986Y-34267D01*
X52005Y-34211D01*
X52005Y-34117D01*
X51613Y-34509D02*
X51930Y-34509D01*
X51967Y-34528D01*
X51986Y-34547D01*
X52005Y-34584D01*
X52005Y-34659D01*
X51986Y-34696D01*
X51967Y-34715D01*
X51930Y-34733D01*
X51613Y-34733D01*
X51893Y-34901D02*
X51893Y-35088D01*
X52005Y-34864D02*
X51613Y-34995D01*
X52005Y-35125D01*
X52005Y-35443D02*
X52005Y-35256D01*
X51613Y-35256D01*
X51613Y-35536D02*
X51613Y-35797D01*
X52005Y-35629D01*
X51986Y-35928D02*
X52005Y-35984D01*
X52005Y-36077D01*
X51986Y-36115D01*
X51967Y-36133D01*
X51930Y-36152D01*
X51893Y-36152D01*
X51855Y-36133D01*
X51837Y-36115D01*
X51818Y-36077D01*
X51799Y-36003D01*
X51781Y-35965D01*
X51762Y-35947D01*
X51725Y-35928D01*
X51687Y-35928D01*
X51650Y-35947D01*
X51631Y-35965D01*
X51613Y-36003D01*
X51613Y-36096D01*
X51631Y-36152D01*
X51799Y-36320D02*
X51799Y-36451D01*
X52005Y-36507D02*
X52005Y-36320D01*
X51613Y-36320D01*
X51613Y-36507D01*
X51631Y-36880D02*
X51613Y-36843D01*
X51613Y-36787D01*
X51631Y-36731D01*
X51669Y-36693D01*
X51706Y-36675D01*
X51781Y-36656D01*
X51837Y-36656D01*
X51911Y-36675D01*
X51949Y-36693D01*
X51986Y-36731D01*
X52005Y-36787D01*
X52005Y-36824D01*
X51986Y-36880D01*
X51967Y-36899D01*
X51837Y-36899D01*
X51837Y-36824D01*
X52042Y-36974D02*
X52042Y-37272D01*
X51893Y-37347D02*
X51893Y-37534D01*
X52005Y-37310D02*
X51613Y-37440D01*
X52005Y-37571D01*
X51967Y-37926D02*
X51986Y-37907D01*
X52005Y-37851D01*
X52005Y-37814D01*
X51986Y-37758D01*
X51949Y-37720D01*
X51911Y-37702D01*
X51837Y-37683D01*
X51781Y-37683D01*
X51706Y-37702D01*
X51669Y-37720D01*
X51631Y-37758D01*
X51613Y-37814D01*
X51613Y-37851D01*
X51631Y-37907D01*
X51650Y-37926D01*
X52005Y-38094D02*
X51613Y-38094D01*
X51613Y-38187D01*
X51631Y-38243D01*
X51669Y-38280D01*
X51706Y-38299D01*
X51781Y-38318D01*
X51837Y-38318D01*
X51911Y-38299D01*
X51949Y-38280D01*
X51986Y-38243D01*
X52005Y-38187D01*
X52005Y-38094D01*
X51893Y-38467D02*
X51893Y-38654D01*
X52005Y-38430D02*
X51613Y-38560D01*
X52005Y-38691D01*
X51613Y-38896D02*
X51613Y-38934D01*
X51631Y-38971D01*
X51650Y-38990D01*
X51687Y-39008D01*
X51762Y-39027D01*
X51855Y-39027D01*
X51930Y-39008D01*
X51967Y-38990D01*
X51986Y-38971D01*
X52005Y-38934D01*
X52005Y-38896D01*
X51986Y-38859D01*
X51967Y-38840D01*
X51930Y-38822D01*
X51855Y-38803D01*
X51762Y-38803D01*
X51687Y-38822D01*
X51650Y-38840D01*
X51631Y-38859D01*
X51613Y-38896D01*
X51743Y-39363D02*
X52005Y-39363D01*
X51594Y-39270D02*
X51874Y-39176D01*
X51874Y-39419D01*
M02*
