G04 (created by PCBNEW (2013-07-07 BZR 4022)-stable) date 12/31/2013 10:19:37 PM*
%MOIN*%
G04 Gerber Fmt 3.4, Leading zero omitted, Abs format*
%FSLAX34Y34*%
G01*
G70*
G90*
G04 APERTURE LIST*
%ADD10C,0.00590551*%
%ADD11C,0.16*%
%ADD12R,0.06X0.0866*%
%ADD13O,0.06X0.0866*%
%ADD14O,0.0787X0.0787*%
%ADD15R,0.0787X0.0787*%
%ADD16C,0.035*%
%ADD17C,0.01*%
G04 APERTURE END LIST*
G54D10*
G54D11*
X61250Y-36750D03*
X43500Y-36750D03*
G54D12*
X45200Y-41000D03*
G54D13*
X46200Y-41000D03*
X47200Y-41000D03*
G54D14*
X53000Y-32500D03*
G54D15*
X52000Y-32500D03*
G54D14*
X46500Y-32500D03*
G54D15*
X45500Y-32500D03*
G54D16*
X47848Y-38600D03*
X56217Y-38326D03*
X47785Y-35433D03*
X59208Y-36170D03*
X50351Y-34827D03*
X56573Y-36062D03*
X54850Y-38321D03*
X49610Y-38698D03*
X46204Y-34965D03*
X57432Y-37466D03*
X52956Y-37399D03*
X55332Y-35983D03*
X57930Y-36132D03*
X50956Y-34724D03*
X54920Y-35184D03*
X51449Y-34725D03*
X54278Y-32921D03*
X57073Y-35184D03*
X56275Y-37782D03*
X51293Y-37468D03*
X59218Y-37791D03*
X47835Y-34970D03*
X59184Y-38611D03*
X45878Y-35808D03*
X45136Y-34682D03*
X59634Y-38656D03*
X57788Y-38415D03*
X45909Y-38827D03*
X57015Y-38222D03*
X47026Y-38837D03*
X59220Y-37296D03*
X52400Y-40105D03*
X56990Y-32943D03*
X55759Y-35329D03*
X59875Y-40939D03*
X55313Y-38409D03*
X47380Y-37402D03*
X50345Y-37312D03*
X54834Y-32919D03*
X53036Y-34960D03*
X51975Y-40824D03*
X55553Y-32924D03*
X57713Y-35185D03*
X59198Y-32606D03*
X57072Y-35642D03*
G54D17*
X47650Y-38797D02*
X47848Y-38600D01*
X47650Y-41000D02*
X47650Y-38797D01*
X47200Y-41000D02*
X47650Y-41000D01*
X47848Y-35496D02*
X47785Y-35433D01*
X47848Y-38600D02*
X47848Y-35496D01*
X46500Y-34148D02*
X47785Y-35433D01*
X46500Y-32500D02*
X46500Y-34148D01*
X50582Y-35058D02*
X50351Y-34827D01*
X52170Y-35058D02*
X50582Y-35058D01*
X52597Y-34631D02*
X52170Y-35058D01*
X57670Y-34631D02*
X52597Y-34631D01*
X59208Y-36170D02*
X57670Y-34631D01*
X51449Y-33594D02*
X51449Y-34725D01*
X52000Y-33043D02*
X51449Y-33594D01*
X52000Y-32500D02*
X52000Y-33043D01*
X45500Y-40300D02*
X45500Y-32500D01*
X45749Y-40549D02*
X45500Y-40300D01*
X45749Y-41000D02*
X45749Y-40549D01*
X46200Y-41000D02*
X45749Y-41000D01*
X57842Y-40939D02*
X59875Y-40939D01*
X55313Y-38409D02*
X57842Y-40939D01*
X51975Y-36022D02*
X53036Y-34960D01*
X51975Y-40824D02*
X51975Y-36022D01*
M02*
